<svg width="192" height="52" viewBox="0 0 192 52" fill="none" xmlns="http://www.w3.org/2000/svg">
<rect width="192" height="52" rx="10" fill="#33836E"/>
<path fill-rule="evenodd" clip-rule="evenodd" d="M30.3446 21.6031C30.0001 21.8954 29.75 22.341 29.75 23C29.75 23.4142 29.4142 23.75 29 23.75C28.5858 23.75 28.25 23.4142 28.25 23C28.25 21.909 28.6874 21.0421 29.3741 20.4594C30.0446 19.8905 30.9119 19.625 31.75 19.625C32.5881 19.625 33.4554 19.8905 34.1259 20.4594C34.8126 21.0421 35.25 21.909 35.25 23C35.25 23.7659 35.0538 24.3495 34.7334 24.8301C34.4642 25.2339 34.1143 25.5462 33.839 25.7919C33.8089 25.8187 33.7798 25.8447 33.7517 25.8699C33.4445 26.1464 33.213 26.3743 33.0433 26.6741C32.881 26.9609 32.75 27.3616 32.75 27.9999C32.75 28.4141 32.4142 28.7499 32 28.7499C31.5858 28.7499 31.25 28.4141 31.25 27.9999C31.25 27.1383 31.4315 26.4765 31.7379 25.9352C32.037 25.4069 32.4305 25.041 32.7483 24.755C32.7729 24.7328 32.797 24.7112 32.8205 24.6901C33.1207 24.4204 33.3276 24.2347 33.4853 23.998C33.6337 23.7755 33.75 23.4841 33.75 23C33.75 22.341 33.4999 21.8954 33.1554 21.6031C32.7946 21.297 32.2869 21.125 31.75 21.125C31.2131 21.125 30.7054 21.297 30.3446 21.6031Z" fill="white"/>
<path fill-rule="evenodd" clip-rule="evenodd" d="M32.5117 31.4414C32.8196 31.7185 32.8446 32.1927 32.5675 32.5006L32.5575 32.5117C32.2804 32.8196 31.8062 32.8446 31.4983 32.5675C31.1904 32.2904 31.1654 31.8162 31.4425 31.5083L31.4525 31.4972C31.7296 31.1893 32.2038 31.1643 32.5117 31.4414Z" fill="white"/>
<path fill-rule="evenodd" clip-rule="evenodd" d="M32 16.75C26.8914 16.75 22.75 20.8914 22.75 26C22.75 27.6861 23.2004 29.2647 23.987 30.6245C24.0767 30.7794 24.1079 30.9613 24.0752 31.1373L23.4374 34.5626L26.8627 33.9248C27.0387 33.8921 27.2206 33.9233 27.3755 34.013C28.7353 34.7996 30.3139 35.25 32 35.25C37.1086 35.25 41.25 31.1086 41.25 26C41.25 20.8914 37.1086 16.75 32 16.75ZM21.25 26C21.25 20.0629 26.0629 15.25 32 15.25C37.9371 15.25 42.75 20.0629 42.75 26C42.75 31.9371 37.9371 36.75 32 36.75C30.1437 36.75 28.3954 36.2789 26.8702 35.4492L22.6373 36.2373C22.3942 36.2826 22.1445 36.2051 21.9697 36.0303C21.7949 35.8555 21.7174 35.6058 21.7627 35.3627L22.5508 31.1298C21.7211 29.6046 21.25 27.8563 21.25 26Z" fill="white"/>
<path d="M62.7812 23.25C62.7812 24.0208 62.5234 24.638 62.0078 25.1016C61.4974 25.5599 60.8307 25.8516 60.0078 25.9766V26.0312C60.9974 26.151 61.7552 26.4479 62.2812 26.9219C62.8073 27.3906 63.0703 28.0052 63.0703 28.7656C63.0703 29.4323 62.8958 30.0208 62.5469 30.5312C62.1979 31.0417 61.6771 31.4401 60.9844 31.7266C60.2917 32.013 59.4323 32.1562 58.4062 32.1562C57.6615 32.1562 56.9818 32.1042 56.3672 32C55.7526 31.901 55.2057 31.7448 54.7266 31.5312V29.9062C55.0547 30.0625 55.4141 30.1979 55.8047 30.3125C56.2005 30.4219 56.6016 30.5078 57.0078 30.5703C57.4193 30.6276 57.8047 30.6562 58.1641 30.6562C59.1849 30.6562 59.9427 30.4844 60.4375 30.1406C60.9323 29.7969 61.1797 29.3099 61.1797 28.6797C61.1797 28.0339 60.8594 27.5625 60.2188 27.2656C59.5781 26.9688 58.7005 26.8203 57.5859 26.8203H56.2266V25.3203H57.5C58.3281 25.3203 58.9922 25.2474 59.4922 25.1016C59.9922 24.9557 60.3542 24.7474 60.5781 24.4766C60.8021 24.2057 60.9141 23.8828 60.9141 23.5078C60.9141 23.013 60.7161 22.6276 60.3203 22.3516C59.9297 22.0703 59.388 21.9297 58.6953 21.9297C58.0391 21.9297 57.4635 22.0182 56.9688 22.1953C56.474 22.3724 56.0026 22.6042 55.5547 22.8906L54.7031 21.6328C55.0521 21.3932 55.4323 21.1823 55.8438 21C56.2604 20.8177 56.7188 20.6745 57.2188 20.5703C57.7188 20.4661 58.2682 20.4141 58.8672 20.4141C59.7005 20.4141 60.4062 20.5365 60.9844 20.7812C61.5677 21.0208 62.013 21.3542 62.3203 21.7812C62.6276 22.2083 62.7812 22.6979 62.7812 23.25ZM68.5625 23.1875C69.6562 23.1875 70.4818 23.4297 71.0391 23.9141C71.6016 24.3984 71.8828 25.1536 71.8828 26.1797V32H70.5781L70.2266 30.7734H70.1641C69.9193 31.0859 69.6667 31.3438 69.4062 31.5469C69.1458 31.75 68.8438 31.901 68.5 32C68.1615 32.1042 67.7474 32.1562 67.2578 32.1562C66.7422 32.1562 66.2812 32.0625 65.875 31.875C65.4688 31.6823 65.1484 31.3906 64.9141 31C64.6797 30.6094 64.5625 30.1146 64.5625 29.5156C64.5625 28.625 64.8932 27.9557 65.5547 27.5078C66.2214 27.0599 67.2266 26.8125 68.5703 26.7656L70.0703 26.7109V26.2578C70.0703 25.6589 69.9297 25.2318 69.6484 24.9766C69.3724 24.7214 68.9818 24.5938 68.4766 24.5938C68.0443 24.5938 67.625 24.6562 67.2188 24.7812C66.8125 24.9062 66.4167 25.0599 66.0312 25.2422L65.4375 23.9453C65.8594 23.7214 66.3385 23.5391 66.875 23.3984C67.4167 23.2578 67.9792 23.1875 68.5625 23.1875ZM70.0625 27.8672L68.9453 27.9062C68.0286 27.9375 67.3854 28.0938 67.0156 28.375C66.6458 28.6562 66.4609 29.0417 66.4609 29.5312C66.4609 29.9583 66.5885 30.2708 66.8438 30.4688C67.099 30.6615 67.4349 30.7578 67.8516 30.7578C68.487 30.7578 69.013 30.5781 69.4297 30.2188C69.8516 29.8542 70.0625 29.3203 70.0625 28.6172V27.8672ZM81.5156 23.3516V30.5781H82.7656V35.0469H81.0703V32H75.1016V35.0469H73.4062V30.5781H74.1094C74.5469 29.9427 74.9115 29.2344 75.2031 28.4531C75.5 27.6719 75.7292 26.849 75.8906 25.9844C76.0573 25.1146 76.1615 24.237 76.2031 23.3516H81.5156ZM79.6953 24.7578H77.7812C77.7188 25.4609 77.612 26.1615 77.4609 26.8594C77.3099 27.5521 77.1146 28.2161 76.875 28.8516C76.6406 29.4818 76.3594 30.0573 76.0312 30.5781H79.6953V24.7578ZM87.7656 23.1875C88.8594 23.1875 89.6849 23.4297 90.2422 23.9141C90.8047 24.3984 91.0859 25.1536 91.0859 26.1797V32H89.7812L89.4297 30.7734H89.3672C89.1224 31.0859 88.8698 31.3438 88.6094 31.5469C88.349 31.75 88.0469 31.901 87.7031 32C87.3646 32.1042 86.9505 32.1562 86.4609 32.1562C85.9453 32.1562 85.4844 32.0625 85.0781 31.875C84.6719 31.6823 84.3516 31.3906 84.1172 31C83.8828 30.6094 83.7656 30.1146 83.7656 29.5156C83.7656 28.625 84.0964 27.9557 84.7578 27.5078C85.4245 27.0599 86.4297 26.8125 87.7734 26.7656L89.2734 26.7109V26.2578C89.2734 25.6589 89.1328 25.2318 88.8516 24.9766C88.5755 24.7214 88.1849 24.5938 87.6797 24.5938C87.2474 24.5938 86.8281 24.6562 86.4219 24.7812C86.0156 24.9062 85.6198 25.0599 85.2344 25.2422L84.6406 23.9453C85.0625 23.7214 85.5417 23.5391 86.0781 23.3984C86.6198 23.2578 87.1823 23.1875 87.7656 23.1875ZM89.2656 27.8672L88.1484 27.9062C87.2318 27.9375 86.5885 28.0938 86.2188 28.375C85.849 28.6562 85.6641 29.0417 85.6641 29.5312C85.6641 29.9583 85.7917 30.2708 86.0469 30.4688C86.3021 30.6615 86.638 30.7578 87.0547 30.7578C87.6901 30.7578 88.2161 30.5781 88.6328 30.2188C89.0547 29.8542 89.2656 29.3203 89.2656 28.6172V27.8672ZM100.188 24.7969H97.3438V32H95.5156V24.7969H92.6875V23.3516H100.188V24.7969ZM103.703 26.8047H105.852C106.664 26.8047 107.336 26.8984 107.867 27.0859C108.404 27.2682 108.805 27.5443 109.07 27.9141C109.336 28.2839 109.469 28.7474 109.469 29.3047C109.469 29.8516 109.344 30.3281 109.094 30.7344C108.844 31.1354 108.453 31.4479 107.922 31.6719C107.396 31.8906 106.708 32 105.859 32H101.859V23.3516H103.703V26.8047ZM107.625 29.3516C107.625 28.9193 107.464 28.6146 107.141 28.4375C106.818 28.2552 106.357 28.1641 105.758 28.1641H103.703V30.6484H105.773C106.32 30.6484 106.766 30.5495 107.109 30.3516C107.453 30.1484 107.625 29.8151 107.625 29.3516ZM122.93 25.5703C122.93 26.0703 122.776 26.4792 122.469 26.7969C122.167 27.1094 121.75 27.3151 121.219 27.4141V27.4766C121.786 27.5495 122.26 27.75 122.641 28.0781C123.021 28.4062 123.211 28.862 123.211 29.4453C123.211 29.9401 123.086 30.3802 122.836 30.7656C122.591 31.1458 122.201 31.4479 121.664 31.6719C121.133 31.8906 120.438 32 119.578 32H115.656V23.3516H119.562C120.208 23.3516 120.784 23.4219 121.289 23.5625C121.799 23.7031 122.201 23.9349 122.492 24.2578C122.784 24.5807 122.93 25.0182 122.93 25.5703ZM121.297 29.3828C121.297 28.9557 121.133 28.6484 120.805 28.4609C120.482 28.2734 120.008 28.1797 119.383 28.1797H117.5V30.6484H119.422C120.005 30.6484 120.464 30.5521 120.797 30.3594C121.13 30.1615 121.297 29.8359 121.297 29.3828ZM121.062 25.7344C121.062 25.3958 120.935 25.1458 120.68 24.9844C120.424 24.8177 120.023 24.7344 119.477 24.7344H117.5V26.8281H119.227C119.831 26.8281 120.286 26.7422 120.594 26.5703C120.906 26.3932 121.062 26.1146 121.062 25.7344ZM132.938 27.6562C132.938 28.375 132.844 29.013 132.656 29.5703C132.469 30.1276 132.195 30.599 131.836 30.9844C131.477 31.3646 131.044 31.6562 130.539 31.8594C130.034 32.0573 129.464 32.1562 128.828 32.1562C128.234 32.1562 127.69 32.0573 127.195 31.8594C126.701 31.6562 126.271 31.3646 125.906 30.9844C125.547 30.599 125.268 30.1276 125.07 29.5703C124.872 29.013 124.773 28.375 124.773 27.6562C124.773 26.7031 124.938 25.8958 125.266 25.2344C125.599 24.5677 126.073 24.0599 126.688 23.7109C127.302 23.362 128.034 23.1875 128.883 23.1875C129.68 23.1875 130.383 23.362 130.992 23.7109C131.602 24.0599 132.078 24.5677 132.422 25.2344C132.766 25.901 132.938 26.7083 132.938 27.6562ZM126.664 27.6562C126.664 28.2865 126.74 28.8255 126.891 29.2734C127.047 29.7214 127.286 30.0651 127.609 30.3047C127.932 30.5391 128.349 30.6562 128.859 30.6562C129.37 30.6562 129.786 30.5391 130.109 30.3047C130.432 30.0651 130.669 29.7214 130.82 29.2734C130.971 28.8255 131.047 28.2865 131.047 27.6562C131.047 27.026 130.971 26.4922 130.82 26.0547C130.669 25.612 130.432 25.276 130.109 25.0469C129.786 24.8125 129.367 24.6953 128.852 24.6953C128.091 24.6953 127.536 24.9505 127.188 25.4609C126.839 25.9714 126.664 26.7031 126.664 27.6562ZM142.602 23.3516V32H140.75V24.8047H136.891V32H135.047V23.3516H142.602ZM149.672 23.1875C150.698 23.1875 151.521 23.5625 152.141 24.3125C152.766 25.0625 153.078 26.1771 153.078 27.6562C153.078 28.6354 152.932 29.4609 152.641 30.1328C152.354 30.7995 151.951 31.3047 151.43 31.6484C150.914 31.987 150.312 32.1562 149.625 32.1562C149.188 32.1562 148.807 32.099 148.484 31.9844C148.161 31.8698 147.885 31.7214 147.656 31.5391C147.427 31.3516 147.234 31.1484 147.078 30.9297H146.969C146.995 31.138 147.018 31.3698 147.039 31.625C147.065 31.875 147.078 32.1042 147.078 32.3125V35.8359H145.234V23.3516H146.734L146.992 24.5469H147.078C147.24 24.3021 147.435 24.0755 147.664 23.8672C147.898 23.6589 148.18 23.4948 148.508 23.375C148.841 23.25 149.229 23.1875 149.672 23.1875ZM149.18 24.6875C148.674 24.6875 148.268 24.7891 147.961 24.9922C147.659 25.1901 147.438 25.4896 147.297 25.8906C147.161 26.2917 147.089 26.7943 147.078 27.3984V27.6562C147.078 28.2969 147.143 28.8411 147.273 29.2891C147.409 29.7318 147.63 30.0703 147.938 30.3047C148.25 30.5339 148.672 30.6484 149.203 30.6484C149.651 30.6484 150.021 30.526 150.312 30.2812C150.609 30.0365 150.831 29.6875 150.977 29.2344C151.122 28.7812 151.195 28.2474 151.195 27.6328C151.195 26.7005 151.029 25.9766 150.695 25.4609C150.367 24.9453 149.862 24.6875 149.18 24.6875ZM162.859 27.6562C162.859 28.375 162.766 29.013 162.578 29.5703C162.391 30.1276 162.117 30.599 161.758 30.9844C161.398 31.3646 160.966 31.6562 160.461 31.8594C159.956 32.0573 159.385 32.1562 158.75 32.1562C158.156 32.1562 157.612 32.0573 157.117 31.8594C156.622 31.6562 156.193 31.3646 155.828 30.9844C155.469 30.599 155.19 30.1276 154.992 29.5703C154.794 29.013 154.695 28.375 154.695 27.6562C154.695 26.7031 154.859 25.8958 155.188 25.2344C155.521 24.5677 155.995 24.0599 156.609 23.7109C157.224 23.362 157.956 23.1875 158.805 23.1875C159.602 23.1875 160.305 23.362 160.914 23.7109C161.523 24.0599 162 24.5677 162.344 25.2344C162.688 25.901 162.859 26.7083 162.859 27.6562ZM156.586 27.6562C156.586 28.2865 156.661 28.8255 156.812 29.2734C156.969 29.7214 157.208 30.0651 157.531 30.3047C157.854 30.5391 158.271 30.6562 158.781 30.6562C159.292 30.6562 159.708 30.5391 160.031 30.3047C160.354 30.0651 160.591 29.7214 160.742 29.2734C160.893 28.8255 160.969 28.2865 160.969 27.6562C160.969 27.026 160.893 26.4922 160.742 26.0547C160.591 25.612 160.354 25.276 160.031 25.0469C159.708 24.8125 159.289 24.6953 158.773 24.6953C158.013 24.6953 157.458 24.9505 157.109 25.4609C156.76 25.9714 156.586 26.7031 156.586 27.6562ZM168.453 32.1562C167.635 32.1562 166.927 31.9974 166.328 31.6797C165.729 31.362 165.268 30.875 164.945 30.2188C164.622 29.5625 164.461 28.7292 164.461 27.7188C164.461 26.6667 164.638 25.8073 164.992 25.1406C165.346 24.474 165.836 23.9818 166.461 23.6641C167.091 23.3464 167.812 23.1875 168.625 23.1875C169.141 23.1875 169.607 23.2396 170.023 23.3438C170.445 23.4427 170.802 23.5651 171.094 23.7109L170.547 25.1797C170.229 25.0495 169.904 24.9401 169.57 24.8516C169.237 24.763 168.917 24.7188 168.609 24.7188C168.104 24.7188 167.682 24.8307 167.344 25.0547C167.01 25.2786 166.76 25.612 166.594 26.0547C166.432 26.4974 166.352 27.0469 166.352 27.7031C166.352 28.3385 166.435 28.875 166.602 29.3125C166.768 29.7448 167.016 30.0729 167.344 30.2969C167.672 30.5156 168.076 30.625 168.555 30.625C169.029 30.625 169.453 30.5677 169.828 30.4531C170.203 30.3385 170.557 30.1901 170.891 30.0078V31.6016C170.562 31.7891 170.211 31.9271 169.836 32.0156C169.461 32.1094 169 32.1562 168.453 32.1562Z" fill="white"/>
</svg>
